<?xml version="1.0" encoding="UTF-8"?>
<svg width="28px" height="28px" viewBox="0 0 28 28" version="1.1" xmlns="http://www.w3.org/2000/svg" xmlns:xlink="http://www.w3.org/1999/xlink">
    <!-- Generator: Sketch 54 (76480) - https://sketchapp.com -->
    <title>字典类</title>
    <desc>Created with Sketch.</desc>
    <g id="页面标题icon" stroke="none" stroke-width="1" fill="none" fill-rule="evenodd">
        <g transform="translate(-704.000000, -290.000000)" id="字典类">
            <g transform="translate(704.000000, 290.000000)">
                <g id="标题icon" fill="#F49730">
                    <rect id="Rectangle-2" x="0" y="0" width="28" height="28" rx="4"></rect>
                </g>
                <g id="字典" transform="translate(7.000000, 5.000000)" fill="#FFFFFF" fill-rule="nonzero">
                    <path d="M13.2952583,0.550168143 C12.7569398,0.00833934271 11.6700757,0.003198652 11.647762,0.003198652 C8.36299641,0.003198652 5.29021118,-0.003998315 2.00637535,0.003198652 C1.78595528,0.00363393137 1.56674959,0.0393021757 1.35555851,0.109096881 C0.521583212,0.390806731 0,1.19995145 0,2.1879922 L0,14.3391785 L0.000929738345,14.4985399 C0.0223137203,15.2408556 0.265905167,16.0428034 0.815380529,16.5116344 C1.20215168,16.8406386 1.64656661,17 2.13932793,17 L13.9841944,17 L13.9841944,16.9362554 C13.9944216,16.9362554 14,16.5445348 14,15.7590373 C13.6918805,15.5632985 13.5013045,15.2009568 13.4998008,14.8080095 C13.4998008,14.3998386 13.7024837,14.0471873 14,13.8559536 L13.9841944,2.1879922 C13.960951,2.18696407 13.8326471,1.09199694 13.2952583,0.550168143 Z M12.7773941,15.9122298 L1.99986718,15.9122298 C1.63569014,15.924517 1.29431914,15.7166844 1.10894734,15.3698225 C0.923575545,15.0229605 0.923575545,14.5920303 1.10894734,14.2451683 C1.29431914,13.8983064 1.63569014,13.6904738 1.99986718,13.702761 L12.7773941,13.702761 C12.6053925,14.030737 12.4994023,14.4018949 12.4994023,14.8080095 C12.4994023,15.2120678 12.6053925,15.5842538 12.7773941,15.9122298 Z M10.4270669,5.2 L3.57398631,5.2 C3.25592417,5.2 3,4.93221757 3,4.60083682 C3,4.26778243 3.25592417,4 3.57398631,4 L10.4270669,4 C10.7430226,4 11,4.26778243 11,4.60083682 C11,4.93221757 10.7430226,5.2 10.4249605,5.2 L10.4270669,5.2 Z M10.4270669,8.84740574 L3.57398631,8.84740574 C3.25592417,8.84740574 3,8.57962331 3,8.24656892 C3,7.91518816 3.25592417,7.64740574 3.57398631,7.64740574 L10.4270669,7.64740574 C10.7430226,7.64740574 11,7.91518816 11,8.24656892 C11,8.57962331 10.7430226,8.84740574 10.4249605,8.84740574 L10.4270669,8.84740574 Z" id="形状"></path>
                </g>
            </g>
        </g>
    </g>
</svg>