<?xml version="1.0" encoding="UTF-8"?>
<svg width="28px" height="28px" viewBox="0 0 28 28" version="1.1" xmlns="http://www.w3.org/2000/svg" xmlns:xlink="http://www.w3.org/1999/xlink">
    <!-- Generator: Sketch 54 (76480) - https://sketchapp.com -->
    <title>记录类</title>
    <desc>Created with Sketch.</desc>
    <g id="页面标题icon" stroke="none" stroke-width="1" fill="none" fill-rule="evenodd">
        <g transform="translate(-470.000000, -290.000000)" id="记录类">
            <g transform="translate(470.000000, 290.000000)">
                <rect id="Rectangle-2" fill="#F49730" x="0" y="0" width="28" height="28" rx="4"></rect>
                <g id="编组" transform="translate(7.000000, 5.000000)" fill="#FFFFFF" fill-rule="nonzero">
                    <path d="M12.6199477,16.963981 L1.30234428,16.963981 C0.601336488,16.7582219 0.113995921,16.3393608 0.0264174172,15.5327658 C0.00499752069,15.3352275 0.00119967017,15.1347361 0.00112372414,14.9356813 C-0.000319458166,11.1600252 -0.000319458166,6.38436917 0.000819895506,2.60863331 C0.000895856374,2.40941889 0.000288199104,2.20860819 0.0220878703,2.01122948 C0.115439103,1.16744148 0.484514504,0.749378521 1.28221566,0.612498418 C1.84650073,0.515684686 2.41868534,0.598610881 2.98646443,0.57043672 C3.20886672,0.559422456 3.30578795,0.59150747 3.31627003,0.883544954 C3.35045072,1.83244731 3.84553889,2.30191015 4.74266785,2.30230922 C6.18501665,2.30294773 7.62736545,2.30262847 9.06971425,2.30246884 C10.0127972,2.30238902 10.4818321,1.85080441 10.5494339,0.84523449 C10.5631822,0.640912 10.6060979,0.565169017 10.8064727,0.569638577 C11.3249556,0.581211532 11.844502,0.557107859 12.3624532,0.578338244 C13.3046247,0.616888145 13.9345367,1.28524616 13.9904411,2.27900369 C13.9978849,2.41157387 13.9991002,2.54478255 13.9991762,2.67767197 C13.9996319,6.41342128 14.0009991,11.1492504 13.9987204,14.8849997 C13.9979609,16.1859593 13.7618103,16.5354625 12.6199477,16.963981 Z M7.01903558,5.61875447 C5.86101546,5.61875447 4.70299532,5.61443795 3.5449752,5.6215475 C3.21941295,5.62349416 2.99364392,5.88874845 2.99798275,6.2239134 C3.00269563,6.58819368 3.20003782,6.81341438 3.54706981,6.81400686 C5.81328827,6.81798482 8.07950672,6.81798482 10.3457252,6.81426076 C10.7456461,6.81358366 11.0084448,6.54629807 10.9975977,6.18091749 C10.9867506,5.81765285 10.7628518,5.61968546 10.3436306,5.61858518 C9.23543223,5.61562287 8.1272339,5.61756953 7.01903558,5.61875447 Z M7.01903558,8.73147982 C5.86101546,8.73147982 4.70299532,8.7271633 3.5449752,8.73427287 C3.21941295,8.73621953 2.99364392,9.00147382 2.99798275,9.33663877 C3.00269563,9.70091906 3.20003782,9.92613976 3.54706981,9.92673222 C5.81328827,9.93071019 8.07950672,9.93071019 10.3457252,9.92698613 C10.7456461,9.92630903 11.0084448,9.65902343 10.9975977,9.29364286 C10.9867506,8.93037822 10.7628518,8.73241083 10.3436306,8.73131055 C9.23543223,8.72834823 8.1272339,8.7302949 7.01903558,8.73147982 L7.01903558,8.73147982 Z M6.97792873,11.7766669 C5.83246137,11.7766669 4.68699401,11.7719286 3.54160143,11.7795437 C3.20058614,11.7818282 2.99807093,12.0034276 2.99792136,12.3286769 C2.9977718,12.6606106 3.22683534,12.9382232 3.53075774,12.9709681 C3.59252938,12.9776525 3.65519841,12.9744372 3.71741874,12.9744372 C5.92115527,12.9746064 8.12489177,12.9751987 10.3286283,12.9740988 C10.7702281,12.9738449 11.007144,12.745392 10.9976464,12.3375612 C10.9893454,11.9815976 10.752953,11.7772592 10.3395468,11.7767515 C9.21905727,11.7751439 8.098493,11.7761592 6.97792873,11.7766669 L6.97792873,11.7766669 Z" id="形状"></path>
                    <path d="M8.90781366,6.0756955e-14 C9.29015488,0.199030047 9.5357405,0.479896 9.49313404,0.946432672 C9.45244248,1.39249038 9.17446316,1.70495475 8.73060585,1.71103445 C7.5884492,1.72663367 6.44597341,1.72055398 5.30365719,1.71455427 C4.9509171,1.71271436 4.689374,1.53744313 4.56721949,1.20361981 C4.43963943,0.85499725 4.48288421,0.520773953 4.74147517,0.236628172 C4.81950726,0.150872453 4.91222021,0.0784760781 4.99823103,6.07291994e-14 L8.90781366,6.07291994e-14 L8.90781366,6.0756955e-14 Z" id="路径"></path>
                </g>
            </g>
        </g>
    </g>
</svg>