<?xml version="1.0" encoding="UTF-8"?>
<svg width="28px" height="28px" viewBox="0 0 28 28" version="1.1" xmlns="http://www.w3.org/2000/svg" xmlns:xlink="http://www.w3.org/1999/xlink">
    <!-- Generator: Sketch 54 (76480) - https://sketchapp.com -->
    <title>管理类</title>
    <desc>Created with Sketch.</desc>
    <g id="页面标题icon" stroke="none" stroke-width="1" fill="none" fill-rule="evenodd">
        <g transform="translate(-86.000000, -290.000000)" id="管理类">
            <g transform="translate(86.000000, 290.000000)">
                <rect id="Rectangle-2" fill="#F49730" x="0" y="0" width="28" height="28" rx="4"></rect>
                <path d="M16.1117884,20.8702897 L16.0304085,20.836293 L15.9169698,20.7709291 C15.4045987,20.5556791 15.0426572,20.0507995 15.0426572,19.4743578 L15.0426572,18.9037386 C15.0426572,18.5017883 15.2094007,18.1402209 15.4766835,17.8847759 C15.4766835,17.8847759 15.6587924,17.6946947 15.7286008,17.6417275 C15.8317959,17.5701653 16.1148236,17.5108119 16.1148235,17.5108119 C15.9607897,16.9591633 16.1649035,16.3543596 16.6332649,16.014768 C15.8393509,15.5215064 14.9210392,15.2599318 13.9837696,15.2600782 L11.0106515,15.2600782 C8.24771749,15.2600782 6,17.4920292 6,20.2316772 L6,20.5278807 C6,21.9613781 8.21243388,21.9613781 11.0106515,21.9613781 L13.9839593,21.9613781 C14.7854283,21.9613781 15.555787,21.9613781 16.2407822,21.9238127 C16.0615785,21.6024418 16.0153338,21.2247503 16.1117884,20.8702897 M12.3495316,13.8795402 C14.5369255,13.8795402 16.3160919,12.1122738 16.3160919,9.93986401 C16.3160919,7.76745424 14.5369255,6 12.3495316,6 C10.1613789,6 8.37917738,7.76745426 8.37917738,9.93986401 C8.37917738,12.1122738 10.1613789,13.8795402 12.3495316,13.8795402 M21.5830238,18.434734 C21.1770726,18.4063721 20.8659698,18.0788014 20.8659698,17.6860547 C20.8659698,17.5643426 20.894045,17.4522098 20.9503849,17.3490926 C21.0543387,17.1338426 20.97846,16.8624323 20.7618263,16.7407202 L20.5068738,16.5910219 L20.2614061,16.4509028 C20.0447723,16.3291908 19.7805247,16.3947425 19.6390109,16.5910219 C19.5067922,16.7968806 19.2706197,16.9277961 19.0061823,16.9277961 C18.7426934,16.9277961 18.5065209,16.7968806 18.3743022,16.5910219 C18.2327884,16.3947425 17.9685408,16.3293786 17.7511482,16.4509028 L17.4876593,16.5910219 L17.2421917,16.7317045 C17.0247991,16.8532287 16.9496792,17.1246391 17.053633,17.3398891 C17.109973,17.4430062 17.1380481,17.5551391 17.1380481,17.6766633 C17.1380481,18.0789893 16.8269454,18.3971686 16.4209942,18.4255305 L16.4209942,18.434734 C16.1755265,18.4533289 15.9869679,18.649984 15.9869679,18.9024238 L15.9869679,19.4734186 C15.9869679,19.7164671 16.1848217,19.9225135 16.4209942,19.9411084 L16.430479,19.9504998 C16.8269454,19.9694703 17.1382378,20.2966654 17.1382378,20.699367 C17.1382378,20.8208912 17.1101627,20.9332119 17.0538227,21.0361412 C16.9498689,21.2513912 17.0247991,21.5228015 17.2423814,21.6445136 L17.7422325,21.934331 C17.959625,22.056043 18.2333575,21.9904914 18.3655762,21.7938362 C18.4977949,21.5881654 18.7332086,21.4568742 18.9974562,21.4568742 C19.2617039,21.4568742 19.4978764,21.597369 19.6300951,21.7938362 C19.7716089,21.9904914 20.0360463,22.0656222 20.25268,21.934331 L20.7531002,21.6445136 C20.9602491,21.5228016 21.0456127,21.2605947 20.9414691,21.0455325 C20.9414691,21.0455325 20.9414691,21.036329 20.932174,21.036329 C20.9228789,21.0269376 20.9228789,21.0173585 20.913394,21.0079671 L20.9040989,20.9985757 C20.866247,20.9064899 20.8468537,20.807991 20.8470001,20.7085705 C20.8470001,20.3062446 21.1590514,19.9880652 21.5547589,19.9597033 L21.5640541,19.9504998 C21.8113781,19.9335734 22.0022487,19.7282576 21.9988392,19.48281 L21.9988392,18.8932203 C22.0170501,18.649984 21.8184375,18.4531411 21.5830238,18.434734 M20.1011123,19.5857393 C20.0540675,19.7166549 19.9781887,19.8381791 19.8939634,19.9411084 C19.7234259,20.1377635 19.478717,20.287274 19.2047949,20.3342308 C19.1359854,20.3449873 19.0665295,20.3511993 18.9968872,20.3528257 C18.9310624,20.3528257 18.8553733,20.3436222 18.7895486,20.3342308 C18.5158161,20.2874618 18.2701587,20.1379514 18.1005697,19.9411084 C18.005911,19.8381791 17.9402759,19.7166549 17.8924723,19.5857393 C17.8433556,19.4604172 17.8178935,19.3272313 17.8173524,19.1928047 C17.8173524,19.05231 17.8456172,18.9215822 17.8831772,18.7993067 C17.9307911,18.6683911 17.9966159,18.5468669 18.0910849,18.4439376 C18.2608635,18.2380789 18.5063312,18.0979598 18.7893589,18.051003 C18.8551836,18.0417995 18.9215775,18.0324081 18.9966975,18.0324081 C19.0725762,18.0324081 19.1382113,18.0416116 19.2047949,18.051003 C19.4785274,18.0979598 19.7232362,18.2472824 19.9030688,18.4439376 C19.9874839,18.5468669 20.0633626,18.6683911 20.1102177,18.7993067 C20.1580213,18.9213944 20.1766116,19.0521221 20.1766116,19.1928047 C20.1761314,19.327272 20.1505343,19.4604914 20.1011123,19.5857393" id="形状" fill="#FFFFFF" fill-rule="nonzero"></path>
            </g>
        </g>
    </g>
</svg>