<?xml version="1.0" encoding="UTF-8"?>
<svg width="28px" height="28px" viewBox="0 0 28 28" version="1.1" xmlns="http://www.w3.org/2000/svg" xmlns:xlink="http://www.w3.org/1999/xlink">
    <!-- Generator: Sketch 54 (76480) - https://sketchapp.com -->
    <title>单据事物</title>
    <desc>Created with Sketch.</desc>
    <g id="页面标题icon" stroke="none" stroke-width="1" fill="none" fill-rule="evenodd">
        <g transform="translate(-1072.000000, -290.000000)" id="编组-5">
            <g transform="translate(1068.000000, 258.000000)">
                <g id="单据事物" transform="translate(4.000000, 32.000000)">
                    <rect id="Rectangle-2" fill="#F49730" x="0" y="0" width="28" height="28" rx="4"></rect>
                    <path d="M7.57143936,5.5 C6.92856567,5.5 6.5,6.02995616 6.5,6.55989572 L6.5,22.1404442 C6.5,22.3524134 6.82142845,22.458398 6.92856567,22.3524134 L8.96429039,20.5505757 L10.7857239,22.1404276 C11.2142728,22.458398 11.7499924,22.458398 12.1785581,22.1404276 L14.0000084,20.6565935 L15.8214419,22.2464454 C16.2500076,22.5644158 16.7857272,22.5644158 17.2142761,22.2464454 L19.0357096,20.6565935 L21.0714343,22.4584146 C21.2857256,22.5644158 21.5,22.4584146 21.5,22.2464454 L21.5,6.55989572 C21.5,6.02995616 21.0714343,5.5 20.4285774,5.5 L7.57143936,5.5 Z M18.0500053,16.7 L9.95001233,16.7 C9.72498855,16.7 9.5,16.4599774 9.5,16.1 C9.5,15.7400226 9.72500617,15.5 9.95001233,15.5 L18.0499877,15.5 C18.2750115,15.5 18.5,15.7400226 18.5,16.1 C18.5,16.4599774 18.2749938,16.7 18.0499877,16.7 L18.0500053,16.7 Z M18.0500053,13.7 L9.95001233,13.7 C9.72498855,13.7 9.5,13.4599737 9.5,13.1000094 C9.5,12.7400451 9.72500617,12.5 9.95001233,12.5 L18.0499877,12.5 C18.2750115,12.5 18.5,12.7399887 18.5,13.1000094 C18.5,13.4600301 18.2749938,13.6999812 18.0499877,13.6999812 L18.0500053,13.7 Z M18.0500053,10.7 L9.95001233,10.7 C9.72498855,10.7 9.5,10.4599962 9.5,10.1 C9.5,9.74000376 9.72500617,9.5 9.95001233,9.5 L18.0499877,9.5 C18.2750115,9.5 18.5,9.74002255 18.5,10.1 C18.5,10.4599774 18.2749938,10.7 18.0499877,10.7 L18.0500053,10.7 Z" id="形状" fill="#FFFFFF" fill-rule="nonzero"></path>
                </g>
            </g>
        </g>
    </g>
</svg>