<?xml version="1.0" encoding="UTF-8"?>
<svg width="28px" height="28px" viewBox="0 0 28 28" version="1.1" xmlns="http://www.w3.org/2000/svg" xmlns:xlink="http://www.w3.org/1999/xlink">
    <!-- Generator: Sketch 54 (76480) - https://sketchapp.com -->
    <title>处理类</title>
    <desc>Created with Sketch.</desc>
    <g id="页面标题icon" stroke="none" stroke-width="1" fill="none" fill-rule="evenodd">
        <g transform="translate(-930.000000, -290.000000)" id="编组-3">
            <g transform="translate(926.000000, 258.000000)">
                <g id="处理类" transform="translate(4.000000, 32.000000)">
                    <rect id="Rectangle-2" fill="#F49730" x="0" y="0" width="28" height="28" rx="4"></rect>
                    <g transform="translate(6.000000, 5.500000)" fill="#FFFFFF" fill-rule="nonzero" id="形状">
                        <path d="M16.5300404,11.6284958 L16.1211,11.9985646 L14.5024106,10.3482365 L14.9114415,9.97760104 C15.4401777,9.49867917 16.2716223,9.46706979 16.7059723,9.909725 C17.1402681,10.3529115 17.060983,11.1283062 16.5300404,11.6284958 L16.5300404,11.6284958 Z M7.2593617,14.0583802 C7.06784043,14.0583802 6.65559043,14.6311208 6.43386702,14.9395469 C5.99081809,15.5548052 5.57274468,16.1363469 4.9813617,16.1363469 C4.38137021,16.1233667 3.98530638,15.5138281 3.60166702,14.9244948 C3.43070851,14.6611719 3.08481277,14.1299042 2.90350957,14.0645781 C2.65422447,14.1915823 1.8653883,14.8907781 0.763643617,16.0481771 C0.682152128,16.133726 0.566190426,16.1829375 0.445815957,16.1829375 C0.207309574,16.1829375 0.0136904255,15.996876 0.0136904255,15.7677833 L0.0136904255,0.912758333 C0.0136904255,0.410532292 0.438835106,0.00152291667 0.96216383,0.00152291667 L13.5705936,0.00152291667 C14.093434,0.00152291667 14.5191032,0.410532292 14.5191032,0.912758333 L14.5191032,9.07782292 L7.97374149,14.8648531 C7.76706489,14.5585167 7.42447872,14.0614792 7.2593617,14.0583802 Z M11.2245394,4.14968229 L3.30814574,4.14968229 C2.98122128,4.14968229 2.71631064,4.43452969 2.71631064,4.78747032 C2.71631064,5.13921911 2.98122128,5.42468229 3.30816383,5.42468229 L11.2245574,5.42468229 C11.5515543,5.42468229 11.816483,5.13923898 11.816483,4.78747032 C11.816483,4.43452969 11.5515543,4.14968229 11.2245574,4.14968229 L11.2245394,4.14968229 Z M11.2245394,6.70552604 L3.30814574,6.70552604 C2.98122128,6.70552604 2.71631064,6.99139193 2.71631064,7.34301611 C2.71631064,7.69515651 2.98122128,7.98052604 3.30816383,7.98052604 L11.2245574,7.98052604 C11.5515543,7.98052604 11.816483,7.69515651 11.816483,7.34301611 C11.816483,6.99139193 11.5515543,6.70552604 11.2245574,6.70552604 L11.2245394,6.70552604 Z M11.8165011,9.89936562 C11.8165011,9.54718003 11.5515543,9.26186562 11.2245394,9.26186562 L3.30814574,9.26186562 C2.98122128,9.26186562 2.71631064,9.54718003 2.71631064,9.89936562 C2.71631064,10.2509159 2.98122128,10.5368656 3.30816383,10.5368656 L11.2245574,10.5368656 C11.5515543,10.5368656 11.816483,10.2509159 11.816483,9.89936562 L11.8165011,9.89936562 Z M9.49685106,14.9421146 C9.50334362,14.8788958 9.55352979,14.8146146 9.60150957,14.7710875 L13.8295543,10.9578458 L15.4288021,12.5884823 L11.2202532,16.421451 C11.1722191,16.4649604 11.1047798,16.4888135 11.0367798,16.5121531 L9.31075532,16.9739688 C9.28648511,16.9957323 9.2427734,16.9972729 9.22117979,16.9983177 C9.13321383,17.0014167 9.02853723,16.9635563 8.9692,16.9034365 C8.88991489,16.8225979 8.85909787,16.6987104 8.91581277,16.5711927 L9.49685106,14.9421146 L9.49685106,14.9421146 Z"></path>
                    </g>
                </g>
            </g>
        </g>
    </g>
</svg>