<?xml version="1.0" encoding="UTF-8"?>
<svg width="28px" height="28px" viewBox="0 0 28 28" version="1.1" xmlns="http://www.w3.org/2000/svg" xmlns:xlink="http://www.w3.org/1999/xlink">
    <!-- Generator: Sketch 54 (76480) - https://sketchapp.com -->
    <title>编号类</title>
    <desc>Created with Sketch.</desc>
    <g id="页面标题icon" stroke="none" stroke-width="1" fill="none" fill-rule="evenodd">
        <g transform="translate(-164.000000, -290.000000)" id="编号类">
            <g transform="translate(164.000000, 290.000000)">
                <rect id="Rectangle-2" fill="#F49730" x="0" y="0" width="28" height="28" rx="4"></rect>
                <g id="卡编号" transform="translate(7.000000, 5.000000)" fill="#FFFFFF" fill-rule="nonzero">
                    <path d="M12,0.5 C13.100939,0.5 14,1.35 14,2.38942857 L14,17.5 L7,14.6658571 L0,17.5 L0,2.38942857 C0,1.35 0.899061033,0.5 2,0.5 L12,0.5 Z M7.08290683,9.0018759 C5.90709139,9.0018759 4.73127594,8.99719967 3.5554605,9.0049017 C3.22489534,9.00701058 2.99565691,9.2943694 3.00006241,9.65746476 C3.00484771,10.0521017 3.20522246,10.2960908 3.55758731,10.2967327 C5.85863078,10.3010421 8.15967425,10.3010421 10.4607177,10.2970077 C10.8667842,10.2962742 11.1336214,10.0067148 11.1226076,9.61088586 C11.1115939,9.21734917 10.8842543,9.00288449 10.4585909,9.00169252 C9.33336289,8.99848335 8.20813485,9.00059223 7.08290683,9.0018759 Z M7.08290683,5.0018759 C5.90709139,5.0018759 4.73127594,4.99719967 3.5554605,5.0049017 C3.22489534,5.00701058 2.99565691,5.2943694 3.00006241,5.65746476 C3.00484771,6.05210175 3.20522246,6.29609084 3.55758731,6.29673267 C5.85863078,6.30104213 8.15967425,6.30104213 10.4607177,6.29700773 C10.8667842,6.29627421 11.1336214,6.00671481 11.1226076,5.61088586 C11.1115939,5.21734917 10.8842543,5.00288449 10.4585909,5.00169252 C9.33336289,4.99848335 8.20813485,5.00059223 7.08290683,5.0018759 Z" id="形状"></path>
                </g>
            </g>
        </g>
    </g>
</svg>