<?xml version="1.0" encoding="UTF-8"?>
<svg width="28px" height="28px" viewBox="0 0 28 28" version="1.1" xmlns="http://www.w3.org/2000/svg" xmlns:xlink="http://www.w3.org/1999/xlink">
    <!-- Generator: Sketch 54 (76480) - https://sketchapp.com -->
    <title>定义类</title>
    <desc>Created with Sketch.</desc>
    <g id="页面标题icon" stroke="none" stroke-width="1" fill="none" fill-rule="evenodd">
        <g transform="translate(-320.000000, -290.000000)" id="定义类">
            <g transform="translate(320.000000, 290.000000)">
                <rect id="Rectangle-2" fill="#F49730" x="0" y="0" width="28" height="28" rx="4"></rect>
                <g id="自定义-(1)" transform="translate(6.000000, 6.000000)" fill="#FFFFFF" fill-rule="nonzero">
                    <path d="M15.3125805,9 L5.69036062,9 C5.30859066,8.99848371 4.99999628,8.7194398 5,8.37574712 L5,7.12265126 C5,6.9500637 5.06628278,6.80226265 5.20190754,6.68292019 C5.32826474,6.56200951 5.50603138,6.49552322 5.69036062,6.50023442 L15.3136002,6.50023442 C15.5042907,6.50023442 15.6654088,6.55806961 15.8020533,6.68292019 C15.931851,6.79907488 16.003313,6.95791978 15.9998819,7.12265126 L15.9998819,8.37666514 C16.0010108,8.71955294 15.6934581,8.99848206 15.3125805,9 L15.3125805,9 Z M1.8751287,9 L0.625762891,9 C0.279074369,8.99848201 -0.000872917106,8.71913381 0.000153160077,8.37572907 L0.000153160077,7.12259699 C-0.00360180444,6.95756419 0.0618285615,6.79836358 0.18088486,6.6828532 C0.296206979,6.5626244 0.457454346,6.49626925 0.624836062,6.50016215 L1.8751287,6.50016215 C2.04844576,6.50016215 2.19581161,6.55799901 2.31815307,6.6828532 C2.43812136,6.79782423 2.50400232,6.95730333 2.4998116,7.12259699 L2.4998116,8.37664712 C2.5003279,8.71933743 2.22109219,8.99797861 1.8751287,9 Z M15.312565,2.5 L5.69035958,2.5 C5.30809694,2.49698328 4.99998525,2.21775028 5,1.87434643 L5,0.622123245 C5,0.449908206 5.06628268,0.303342215 5.20190723,0.18334131 C5.32868409,0.0631344554 5.50606854,-0.00339846199 5.69035958,0.000133821745 L15.3135847,0.000133821745 C15.4976596,-0.00238149013 15.6746071,0.0639875298 15.802037,0.18334131 C15.9320372,0.299124248 16.0035357,0.457707616 15.9998653,0.622123245 L15.9998653,1.87434643 C16.0015645,2.21730332 15.6943338,2.49697728 15.312565,2.5 Z M1.8752288,2.5 L0.625807815,2.5 C0.27886944,2.49648079 -0.000356555464,2.21724101 0.000170450635,1.87433173 L0.000170450635,0.622079126 C0.000170450635,0.449860041 0.0594901415,0.303290607 0.180910134,0.183286883 C0.29667062,0.0638367828 0.457547368,-0.00255162973 0.624880945,7.50901396e-05 L1.8752288,7.50901396e-05 C2.04855353,7.50901396e-05 2.19592588,0.0605349817 2.31827275,0.183286883 C2.43863392,0.297749398 2.50459083,0.457059849 2.4999393,0.622079126 L2.4999393,1.87433173 C2.50047135,2.21688786 2.22180431,2.49598215 1.8752288,2.5 L1.8752288,2.5 Z M15.3125926,15.5 L5.69036425,15.5 C5.50682147,15.4997569 5.33091844,15.4337942 5.2014212,15.3166488 C5.07192396,15.1995035 4.99946139,15.0407906 5.00000301,14.8754879 L5.00000301,13.6218717 C5.00000301,13.4492124 5.06628585,13.3004316 5.20191073,13.1810396 C5.32986717,13.0623913 5.50674697,12.9968744 5.69036425,13.0001147 L15.3136123,13.0001147 C15.4970007,12.9979642 15.6734208,13.0633108 15.8020659,13.1810396 C15.9317193,13.2977051 16.0031304,13.4568341 15.9998946,13.6218717 L15.9998946,14.8754879 C16.0012523,15.040536 15.9294728,15.1992576 15.8004607,15.3164835 C15.6714487,15.4337094 15.4958569,15.49976 15.3125926,15.5 L15.3125926,15.5 Z M1.87526382,15.5 L0.625818726,15.5 C0.459156675,15.4997586 0.299458735,15.4337359 0.182046406,15.3165345 C0.0646340765,15.1993331 -0.00081705581,15.0406113 0.000169289285,14.8754747 L0.000169289285,13.6218321 C0.000169289285,13.4491692 0.0594901247,13.3003852 0.18091246,13.1809907 C0.297721117,13.0630779 0.458159813,12.9976966 0.624891838,13.000062 L1.87526382,13.000062 C2.04859189,13.000062 2.19596709,13.0606777 2.31831631,13.1809907 C2.4381489,13.2964838 2.50398304,13.4562372 2.49998637,13.6218321 L2.49998637,14.8754747 C2.50097231,15.0404525 2.43564815,15.199035 2.31843635,15.3162098 C2.20122456,15.4333846 2.04176506,15.4995148 1.87526382,15.5 L1.87526382,15.5 Z" id="形状"></path>
                </g>
                <g id="卡编号" transform="translate(6.000000, 6.000000)">
                    <g id="自定义"></g>
                </g>
            </g>
        </g>
    </g>
</svg>