<?xml version="1.0" encoding="UTF-8"?>
<svg width="28px" height="28px" viewBox="0 0 28 28" version="1.1" xmlns="http://www.w3.org/2000/svg" xmlns:xlink="http://www.w3.org/1999/xlink">
    <!-- Generator: Sketch 54 (76480) - https://sketchapp.com -->
    <title>查询类</title>
    <desc>Created with Sketch.</desc>
    <g id="页面标题icon" stroke="none" stroke-width="1" fill="none" fill-rule="evenodd">
        <g transform="translate(-398.000000, -290.000000)" id="查询类">
            <g transform="translate(398.000000, 290.000000)">
                <g id="标题icon" fill="#F49730">
                    <rect id="Rectangle-2" x="0" y="0" width="28" height="28" rx="4"></rect>
                </g>
                <g id="查询" transform="translate(7.000000, 6.000000)" fill="#FFFFFF" fill-rule="nonzero">
                    <path d="M6.29738742,1.73214473 C3.74703952,1.73214473 1.67890246,3.86553404 1.67890246,6.49610477 C1.67890246,9.12664841 3.74703952,11.2597939 6.29738742,11.2597939 C8.84768281,11.2597939 10.915321,9.12662132 10.915321,6.49610477 C10.915321,3.86556113 8.84768281,1.73214473 6.29738742,1.73214473 L6.29738742,1.73214473 Z M3.35833005,7.79526071 C3.42071682,5.26785865 3.35833005,4.33075457 3.35833005,4.33075457 C5.25836944,4.28327369 7.55657083,4.33075457 7.55657083,4.33075457 L4.19776815,5.19667796 L3.35833005,7.79526071 Z M14.6309571,15.6193133 C14.1388998,16.1268956 13.3407641,16.1268956 12.8487594,15.6193133 L9.45516608,12.1172938 C8.52679533,12.6734674 7.4481817,12.9921554 6.29738742,12.9921554 C2.81929894,12.9921554 -2.84217094e-14,10.0840666 -2.84217094e-14,6.49607768 C-2.84217094e-14,2.90806166 2.81929894,0 6.29738742,0 C9.77492451,0 12.5947486,2.90803457 12.5947486,6.49607768 C12.5947486,7.95582355 12.1279506,9.302975 11.3401077,10.3875867 L14.6309571,13.7823206 C15.1230143,14.2889007 15.1230143,15.112029 14.6309571,15.6193133 Z" id="形状"></path>
                </g>
            </g>
        </g>
    </g>
</svg>