<?xml version="1.0" encoding="UTF-8"?>
<svg width="28px" height="28px" viewBox="0 0 28 28" version="1.1" xmlns="http://www.w3.org/2000/svg" xmlns:xlink="http://www.w3.org/1999/xlink">
    <!-- Generator: Sketch 54 (76480) - https://sketchapp.com -->
    <title>复核类</title>
    <desc>Created with Sketch.</desc>
    <g id="页面标题icon" stroke="none" stroke-width="1" fill="none" fill-rule="evenodd">
        <g transform="translate(-860.000000, -290.000000)" id="编组-4">
            <g transform="translate(856.000000, 258.000000)">
                <g id="复核类" transform="translate(4.000000, 32.000000)">
                    <g id="标题icon" fill="#F49730">
                        <rect id="Rectangle-2" x="0" y="0" width="28" height="28" rx="4"></rect>
                    </g>
                    <g id="复核" transform="translate(6.000000, 6.000000)" fill="#FFFFFF" fill-rule="nonzero">
                        <path d="M0.347005544,2.72265885 L15.9889475,2.72265885 L15.9889475,1.73502769 C15.9889475,0.800782014 15.2148583,0 14.2539198,0 L1.73502769,0 C0.774089275,0 0,0.800782014 0,1.73502769 L0,2.72265885 L0.347005544,2.72265885 Z M15.5885565,4.11068101 L0,4.11068101 L0,14.2539198 C0,15.2148583 0.800782014,15.9889475 1.73502769,15.9889475 L14.2539198,15.9889475 C15.2148583,15.9889475 15.9889475,15.2148583 15.9889475,14.2539198 L15.9889475,4.11068101 L15.5885565,4.11068101 Z M13.8535288,7.10026718 L7.23373086,13.7467579 C7.04688172,13.933607 6.80664712,14.0136852 6.56641251,14.0136852 C6.32617791,14.0136852 6.0859433,13.933607 5.89909416,13.7467579 L2.10872597,9.95638971 C1.73502771,9.58269144 1.73502771,8.99545129 2.10872597,8.62175301 C2.48242424,8.24805473 3.06966439,8.24805474 3.44336266,8.62175301 L6.53971977,11.7448029 L12.4921994,5.7656305 C12.8658977,5.39193223 13.4531378,5.39193223 13.8268361,5.7656305 C14.2005344,6.13932877 14.2005344,6.72656891 13.8535288,7.10026718 L13.8535288,7.10026718 Z" id="形状"></path>
                    </g>
                </g>
            </g>
        </g>
    </g>
</svg>