<?xml version="1.0" encoding="UTF-8"?>
<svg width="28px" height="28px" viewBox="0 0 28 28" version="1.1" xmlns="http://www.w3.org/2000/svg" xmlns:xlink="http://www.w3.org/1999/xlink">
    <!-- Generator: Sketch 54 (76480) - https://sketchapp.com -->
    <title>维护类</title>
    <desc>Created with Sketch.</desc>
    <g id="页面标题icon" stroke="none" stroke-width="1" fill="none" fill-rule="evenodd">
        <g transform="translate(-782.000000, -290.000000)" id="维护类">
            <g transform="translate(782.000000, 290.000000)">
                <g id="标题icon" fill="#F49730">
                    <rect id="Rectangle-2" x="0" y="0" width="28" height="28" rx="4"></rect>
                </g>
                <g id="字典" transform="translate(6.000000, 5.000000)" fill="#FFFFFF" fill-rule="nonzero">
                    <g id="系统维护">
                        <path d="M12.3375176,10.3815713 C12.1495879,10.1925625 12.0550752,10.0046162 12.1495879,9.72217383 C12.7144727,8.02217383 12.2430215,6.32323633 10.7362803,5.28475879 C9.79442383,4.62429883 8.75913379,4.43529004 7.62828516,4.81330762 C8.09867383,5.28475879 8.570125,5.75727246 8.94601758,6.22874023 C9.79442383,7.07820898 9.88893652,8.21118262 9.04053027,9.06063477 C8.19423242,9.91118262 7.06338379,9.81560742 6.21604004,8.96613867 C5.74458887,8.4946875 5.36869629,8.02323633 4.89724512,7.55072266 L4.80273242,7.55072266 C4.52029004,8.96613867 4.89724512,10.193625 5.93359766,11.1365439 C7.06338379,12.1750215 8.38217871,12.4585264 9.79548633,11.9870752 C10.1713789,11.8925625 10.3603877,11.8925625 10.6428301,12.1750049 C11.7726328,13.3079951 13.6573916,15.1014287 14.7871777,16.2344189 C15.3520791,16.8003662 16.0114766,16.8003662 16.4829277,16.328915 C17.1423418,15.7629678 17.1423418,15.0069326 16.5774404,14.3464727 C15.4465752,13.4025078 13.4683828,11.5145615 12.3375176,10.3815713 M15.7449551,15.9009932 C15.3690625,15.9009932 15.1800537,15.6185508 15.1800537,15.3361084 C15.1800537,14.9580908 15.4635752,14.7701445 15.7449551,14.7701445 C16.1219102,14.7701445 16.3098564,15.0525869 16.3098564,15.3360918 C16.3098564,15.6185508 16.02846,15.9009932 15.7449551,15.9009932" id="形状"></path>
                        <path d="M11.0197852,14.0629678 C10.265875,14.4399062 9.41853125,14.628915 8.47562891,14.628915 C5.0851748,14.628915 2.35413477,11.8925625 2.35413477,8.4946875 C2.35413477,5.0968125 5.0851748,2.35941406 8.47669141,2.35941406 C11.868208,2.35941406 14.5981855,5.0968125 14.5981855,8.4946875 C14.5981855,9.24966016 14.4091602,10.0046162 14.2222764,10.6661387 L15.0696201,11.5145615 C15.1641328,11.2321025 15.3531416,10.9485977 15.4465752,10.5705801 L16.8588203,10.1001914 L16.953333,9.72323633 L16.953333,8.4946875 C16.953333,8.11773242 16.953333,7.64521875 16.8588203,7.17376758 L16.7643242,6.79575 L15.3520791,6.32429883 C15.2359416,5.90103451 15.0783843,5.49024235 14.8816904,5.097875 L15.5400254,3.77695508 L15.3520791,3.49343359 C14.7871777,2.73847754 14.2222764,2.07695508 13.4683828,1.60550391 L13.1859238,1.41649512 L11.8671289,2.07695508 C11.4912363,1.88794629 11.1132354,1.7 10.6428301,1.60550391 L10.1713789,0.189008789 L9.79548633,0.0944960938 C9.32403516,0 8.94708008,0 8.47562891,0 C8.00417773,0 7.62934766,0 7.15787988,0.0944960937 L6.78094141,0.189008789 L6.30947363,1.50992871 C5.93358105,1.6989375 5.46319238,1.88688379 5.0851748,2.07587598 L3.76744238,1.41544922 L3.4839375,1.60445801 C2.81021791,2.18596838 2.18091927,2.81703726 1.60130371,3.4923877 L1.41229492,3.77590918 L2.07169238,5.0968291 C1.88268359,5.47378418 1.6957998,5.94629785 1.50679102,6.32325293 L0.187996094,6.7946875 L0.0934667969,7.17376758 C4.98046875e-05,7.64521875 4.98046875e-05,8.11773242 4.98046875e-05,8.4946875 C4.98046875e-05,8.87164258 4.98046875e-05,9.34415625 0.0934833984,9.81560742 L0.187996094,10.193625 L1.60128711,10.6661387 C1.6957998,11.0430937 1.88268359,11.5145615 2.07169238,11.8925625 L1.41227832,13.213499 L1.60130371,13.4970039 C1.88374609,13.873959 2.16618848,14.156418 2.44864746,14.5354814 C2.82560254,14.8200488 3.10804492,15.1014287 3.485,15.3860127 L3.76850488,15.5739424 L5.0862373,14.913499 C5.46319238,15.1024912 5.84014746,15.2915166 6.31053613,15.3860127 L6.78094141,16.8014287 L7.15787988,16.8959414 C7.62934766,16.989375 8.09973633,16.989375 8.47562891,16.989375 C8.85258398,16.989375 9.32403516,16.989375 9.79442383,16.8948789 L10.1703164,16.8003828 L10.6407051,15.3849336 C11.0635497,15.2686848 11.4736943,15.1103965 11.8650039,14.9124365 L11.9595166,15.0069326 L11.0197852,14.0629678 L11.0197852,14.0629678 Z" id="路径"></path>
                    </g>
                </g>
            </g>
        </g>
    </g>
</svg>