<?xml version="1.0" encoding="UTF-8"?>
<svg width="28px" height="28px" viewBox="0 0 28 28" version="1.1" xmlns="http://www.w3.org/2000/svg" xmlns:xlink="http://www.w3.org/1999/xlink">
    <!-- Generator: Sketch 54 (76480) - https://sketchapp.com -->
    <title>设置/配置类</title>
    <desc>Created with Sketch.</desc>
    <g id="页面标题icon" stroke="none" stroke-width="1" fill="none" fill-rule="evenodd">
        <g transform="translate(-242.000000, -290.000000)" id="设置/配置类">
            <g transform="translate(242.000000, 290.000000)">
                <rect id="Rectangle-2" fill="#F49730" x="0" y="0" width="28" height="28" rx="4"></rect>
                <path d="M22.5,13.2612368 C22.5,13.115498 22.4444032,12.9698607 22.3331588,12.8585909 C22.221889,12.747448 22.0766321,12.6918511 21.9314006,12.6918511 L21.0622943,12.6918511 C20.7020562,12.6918511 20.3210201,12.4107726 20.2140114,12.067173 L19.7632256,10.9722807 C19.5938987,10.6556425 19.6636484,10.1882943 19.9167763,9.93387283 L20.533541,9.31791977 C20.6364662,9.21496925 20.7003822,9.07270527 20.7003822,8.91537537 C20.7003822,8.75804546 20.6372524,8.61565466 20.533541,8.51232369 L19.4867886,7.46727062 C19.3838634,7.36432009 19.2418785,7.30080984 19.0850305,7.30080984 C18.9282078,7.30080984 18.7854366,7.36482736 18.682486,7.46727062 L18.0657467,8.08400994 C17.812492,8.33805095 17.3435712,8.40780062 17.0264258,8.23758605 L15.9324211,7.78728213 C15.5904195,7.68108508 15.3081489,7.2992373 15.3081489,6.9393797 L15.3081489,6.06900518 C15.3081489,5.92377367 15.2525774,5.77811098 15.1413076,5.66686659 C15.0301393,5.55559683 14.8848064,5.5 14.7395495,5.5 L13.2612368,5.5 C13.1150922,5.5 12.9698607,5.55559683 12.8585909,5.66686659 C12.7474226,5.77811098 12.6917497,5.92377367 12.6917497,6.06900518 L12.6917497,6.9393797 C12.6917497,7.2992373 12.4120662,7.68108508 12.0683651,7.78728213 L10.9735742,8.23758605 C10.6556425,8.40780062 10.1890806,8.33883722 9.93595264,8.08400994 L9.31670232,7.46777789 C9.21377717,7.36482736 9.07100592,7.30172293 8.91405646,7.30172293 C8.75723382,7.30172293 8.61524885,7.36561363 8.51232369,7.46815834 L7.46815834,8.51242514 C7.36520782,8.61527421 7.30210338,8.75723382 7.30131711,8.91456373 C7.30131711,9.07141173 7.36520782,9.21377717 7.46815834,9.31672769 L8.08400994,9.93387283 C8.33883722,10.1887001 8.40858689,10.6556425 8.23758605,10.9722807 L7.78687632,12.0680861 C7.68057781,12.4116604 7.29961776,12.6926628 6.9393797,12.6926628 L6.06948709,12.6918511 C5.92334249,12.6918511 5.77811098,12.747448 5.66684123,12.8586924 C5.55567292,12.9699621 5.5,13.1155995 5.5,13.2612368 L5.5,14.739169 C5.5,14.8849078 5.55557147,15.0305451 5.66684123,15.1418149 C5.77811098,15.2525774 5.92334249,15.3082757 6.06948709,15.3082757 L6.9393797,15.3082757 C7.29961776,15.3090619 7.67976618,15.590039 7.78609005,15.9328523 L8.23758605,17.0277193 C8.40698899,17.3452706 8.33805095,17.8138109 8.08400994,18.0670403 L7.46645898,18.6828919 C7.36353382,18.7858424 7.29961776,18.9282078 7.29961776,19.0859435 C7.29961776,19.2427915 7.36353382,19.3855374 7.46645898,19.4884879 L8.51321141,20.533541 C8.61613657,20.6364915 8.75812155,20.7000018 8.91496955,20.7000018 C9.07189364,20.7000018 9.21466489,20.6364915 9.31761541,20.533541 L9.93514101,19.9172836 C10.1882943,19.6636484 10.6548309,19.5938987 10.9710886,19.7657112 L12.0684666,20.2161166 C12.4120662,20.3227194 12.6918511,20.7037556 12.6918511,21.0639937 L12.6918511,21.9310202 C12.6918511,22.0766575 12.7474226,22.2223963 12.8586924,22.3335646 C12.9698607,22.4444285 13.1150922,22.5 13.2612368,22.5 L14.7387632,22.5 C14.8849078,22.5 15.0301393,22.4444285 15.1413076,22.3335646 C15.2525774,22.2223963 15.3082503,22.0766575 15.3082503,21.9310202 L15.3082503,21.0639937 C15.3082503,20.7037556 15.5904195,20.3227194 15.9324211,20.2161166 L17.0281252,19.7657112 C17.3452706,19.5938987 17.8134051,19.6636484 18.068207,19.9172836 L18.6815983,20.5331606 C18.7845488,20.6364915 18.9265085,20.7008895 19.0842442,20.7008895 C19.2410922,20.70127 19.3838634,20.6377851 19.4867886,20.5344287 L20.533541,19.4884879 C20.6372524,19.385157 20.7003822,19.2427915 20.7003822,19.0855377 C20.7003822,18.9282078 20.6364662,18.7858424 20.533541,18.6828919 L19.9167763,18.0670403 C19.6636484,17.8138109 19.5938987,17.3452706 19.7632256,17.0277193 L20.2140114,15.9328523 C20.3211215,15.590039 20.7037556,15.3090619 21.0622943,15.3090619 L21.9314006,15.3090619 C22.0766321,15.3090619 22.221889,15.2534651 22.3331588,15.1422207 C22.4444032,15.030951 22.5,14.8853136 22.5,14.7396763 L22.5,13.2612368 Z M17.2713359,13.999163 C17.2713359,15.8050202 15.8078863,17.2676075 14.0025364,17.2676075 C12.1962734,17.2676075 10.7327983,15.8050202 10.7327983,13.999163 C10.7327983,12.1938131 12.1962734,10.7303381 14.0025364,10.7303381 C15.8078863,10.7303381 17.2713359,12.1938131 17.2713359,13.999163 Z" id="Fill-1" fill="#FFFFFF"></path>
            </g>
        </g>
    </g>
</svg>