<?xml version="1.0" encoding="UTF-8"?>
<svg width="28px" height="28px" viewBox="0 0 28 28" version="1.1" xmlns="http://www.w3.org/2000/svg" xmlns:xlink="http://www.w3.org/1999/xlink">
    <!-- Generator: Sketch 54 (76480) - https://sketchapp.com -->
    <title>类型/类别</title>
    <desc>Created with Sketch.</desc>
    <g id="页面标题icon" stroke="none" stroke-width="1" fill="none" fill-rule="evenodd">
        <g transform="translate(-548.000000, -290.000000)" id="类型/类别">
            <g transform="translate(548.000000, 290.000000)">
                <rect id="Rectangle-2" fill="#F49730" x="0" y="0" width="28" height="28" rx="4"></rect>
                <path d="M21.7276592,10.6914533 L18.1937784,14.1974465 C17.9654305,14.4239924 17.5103095,14.4239924 17.168575,14.1974465 L13.7496556,10.6914533 C13.5213077,10.4649074 13.5213077,10.0133779 13.7496556,9.67434025 L17.2819616,6.16990943 C17.5103095,5.94336352 17.9654305,5.94336352 18.307165,6.16990943 L21.8394709,9.67434025 C22.0693936,10.0133779 22.0693936,10.4664697 21.7276592,10.6914533 Z M11.8126354,21.8859459 L6.79843027,21.8859459 C6.34330927,21.8859459 6,21.5469082 6,21.0938164 L6,16.1191807 C6,15.6660889 6.34173446,15.3270512 6.79843027,15.3270512 L11.9275968,15.3270512 C12.3827178,15.3270512 12.7260271,15.6660889 12.7260271,16.1191807 L12.7260271,21.2078705 C12.6094909,21.5469082 12.2677564,21.8859459 11.8126354,21.8859459 L11.8126354,21.8859459 Z M11.8126354,13.7443547 L6.79843027,13.7443547 C6.34173446,13.7443547 6,13.405317 6,12.9537876 L6,7.86509777 C6,7.41356834 6.34173446,7.07296829 6.79843027,7.07296829 L11.9275968,7.07296829 C12.3827178,7.07296829 12.7260271,7.41200595 12.7260271,7.86509777 L12.7260271,12.9537876 C12.6094909,13.405317 12.2677564,13.7443546 11.8126354,13.7443547 L11.8126354,13.7443547 Z M15.0032069,15.3270512 L20.1323734,15.3270512 C20.5874944,15.3270512 20.9308037,15.6660889 20.9308037,16.1191807 L20.9308037,21.2078705 C20.9308037,21.6594 20.5890692,22 20.1323734,22 L15.0032069,22 C14.5480859,22 14.2047766,21.6609623 14.2047766,21.2078705 L14.2047766,16.1191807 C14.2047766,15.5535971 14.5480859,15.3270512 15.0032069,15.3270512 Z" id="形状" fill="#FFFFFF" fill-rule="nonzero"></path>
            </g>
        </g>
    </g>
</svg>