<?xml version="1.0" encoding="UTF-8"?>
<svg width="28px" height="28px" viewBox="0 0 28 28" version="1.1" xmlns="http://www.w3.org/2000/svg" xmlns:xlink="http://www.w3.org/1999/xlink">
    <!-- Generator: Sketch 54 (76480) - https://sketchapp.com -->
    <title>任务类</title>
    <desc>Created with Sketch.</desc>
    <g id="页面标题icon" stroke="none" stroke-width="1" fill="none" fill-rule="evenodd">
        <g transform="translate(-1001.000000, -290.000000)" id="编组-5">
            <g transform="translate(996.000000, 258.000000)">
                <g id="任务类" transform="translate(5.000000, 32.000000)">
                    <g fill="#F49730" id="Rectangle-2">
                        <rect x="0" y="0" width="28" height="28" rx="4"></rect>
                    </g>
                    <g id="复核" transform="translate(6.000000, 6.000000)" fill="#FFFFFF" fill-rule="nonzero">
                        <path d="M0.347245414,2.7245409 L16,2.7245409 L16,1.73622704 C16,0.80133556 15.2253756,0 14.263773,0 L1.73622704,0 C0.774624369,0 0,0.80133556 0,1.73622704 L0,2.7245409 L0.347245414,2.7245409 Z M15.5993322,4.11352254 L0,4.11352254 L0,14.263773 C0,15.2253756 0.80133556,16 1.73622704,16 L14.263773,16 C15.2253756,16 16,15.2253756 16,14.263773 L16,4.11352254 L15.5993322,4.11352254 Z M13.8631052,7.10517529 L7.23873123,13.7562604 C7.05175292,13.9432387 6.81135226,14.0233723 6.57095159,14.0233723 C6.33055092,14.0233723 6.09015025,13.9432387 5.90317195,13.7562604 L2.11018365,9.96327213 C1.73622706,9.58931554 1.73622706,9.00166946 2.11018365,8.62771285 C2.48414023,8.25375625 3.07178632,8.25375626 3.44574291,8.62771285 L6.5442404,11.7529215 L12.5008347,5.76961603 C12.8747913,5.39565944 13.4624374,5.39565944 13.836394,5.76961603 C14.2103506,6.14357262 14.2103506,6.7312187 13.8631052,7.10517529 L13.8631052,7.10517529 Z" id="形状"></path>
                    </g>
                </g>
            </g>
        </g>
    </g>
</svg>